# xmcd CD database file
#
# Track frame offsets:
#	150
#	23275
#	46875
#	70350
#	98700
#	134100
#	148050
#	167775
#	198975
#	211150
#
# Disc length: 3223 seconds
#
# Revision: 0
# Processed by: cddbd v1.5.1PL0 Copyright (c) Steve Scherf et al.
# Submitted via: CDex 1.50Beta5
#
DISCID=8d0c950a
DTITLE=Various Artist - Meditation Sampler 2
DYEAR=1900
DGENRE=New Age
TTITLE0=Karunsh - The End Of A Day
TTITLE1=Kamal - Good Night
TTITLE2=Anugama - Morning Glory
TTITLE3=Kamal - Shakuhaji Tales
TTITLE4=Anugama - Canon in D-Dur Für Streicher und Basso Continuo Pachelbel
TTITLE5=Anugama - Space Dream
TTITLE6=Sirus - Garden Of Delight
TTITLE7=Anugama - Inner Waves
TTITLE8=Sirus - Call Of Silence
TTITLE9=Anugama - Singing Water
EXTD=
EXTT0=
EXTT1=
EXTT2=
EXTT3=
EXTT4=
EXTT5=
EXTT6=
EXTT7=
EXTT8=
EXTT9=
PLAYORDER=
